<?xml version="1.0" standalone="no"?>
<!DOCTYPE svg PUBLIC "-//W3C//DTD SVG 20010904//EN"
 "http://www.w3.org/TR/2001/REC-SVG-20010904/DTD/svg10.dtd">
<svg version="1.0" xmlns="http://www.w3.org/2000/svg"
 width="600.000000pt" height="600.000000pt" viewBox="0 0 600.000000 600.000000"
 preserveAspectRatio="xMidYMid meet">
<metadata>
Created by potrace 1.11, written by Peter Selinger 2001-2013
</metadata>
<g transform="translate(0.000000,600.000000) scale(0.100000,-0.100000)"
fill="#000000" stroke="none">
<path d="M3337 5334 c-1 -1 -29 -4 -62 -7 -157 -13 -352 -73 -517 -159 -280
-146 -499 -369 -648 -659 -70 -137 -116 -279 -148 -464 -14 -83 -7 -396 11
-485 23 -110 63 -241 93 -308 13 -29 24 -56 24 -60 0 -32 216 -355 254 -380 6
-4 32 -30 58 -57 l47 -50 -65 -85 c-37 -47 -72 -94 -80 -105 -14 -20 -15 -20
-56 4 -111 63 -248 57 -345 -16 -18 -14 -75 -79 -127 -146 -82 -105 -185 -236
-504 -642 -35 -44 -70 -89 -80 -100 -50 -60 -264 -340 -274 -358 -61 -114 -31
-281 65 -362 102 -86 226 -178 272 -200 76 -38 186 -37 262 1 66 34 68 36 383
439 138 176 256 327 263 335 7 8 37 47 67 85 30 38 61 77 67 85 92 112 245
314 258 340 54 105 24 275 -62 350 -21 19 -31 35 -27 43 17 28 147 192 154
195 5 2 26 -8 47 -21 161 -101 380 -180 583 -207 86 -12 310 -16 365 -6 17 3
50 8 75 11 25 3 89 17 143 31 488 124 879 486 1048 970 15 45 30 93 33 108 3
14 8 35 11 47 36 112 42 464 10 604 -8 39 -17 82 -20 96 -9 51 -58 185 -100
276 -74 159 -184 313 -311 435 -66 64 -205 177 -217 178 -5 0 -23 11 -41 25
-52 40 -253 130 -351 159 -170 48 -234 58 -428 60 -70 1 -129 1 -130 0z m260
-218 c408 -40 789 -296 989 -662 105 -193 155 -384 158 -599 0 -71 -2 -156 -6
-187 -50 -402 -307 -777 -668 -975 -108 -58 -301 -123 -425 -141 -100 -14
-365 -7 -450 12 -317 74 -564 227 -756 471 -144 182 -239 409 -266 640 -21
172 -2 378 49 545 96 313 350 615 640 761 149 75 309 122 458 135 41 3 76 7
77 8 4 4 127 -1 200 -8z"/>
<path d="M3417 4834 c-1 -1 -33 -4 -72 -7 -276 -24 -554 -189 -714 -426 -195
-287 -231 -643 -97 -961 104 -245 309 -443 566 -544 234 -93 546 -82 776 28
295 140 500 401 565 721 17 85 19 261 3 352 -54 312 -250 581 -531 726 -137
70 -264 102 -446 111 -26 1 -48 1 -50 0z"/>
</g>
</svg>
